# xmcd
#
# Track frame offsets:
# 150
# 19751
# 38115
# 53189
# 76767
# 98654
#
# Disc length: 1584 seconds
#
# Revision: 0
# Processed by: cddbd v1.5.2PL0 Copyright (c) Steve Scherf et al.
# Submitted via: Audion 3.0.2 (http://www.panic.com/audion/)
#
DISCID=3a062e06
DTITLE=iroiro - rui
DYEAR=1900
DGENRE=
TTITLE0=Aisite!
TTITLE1=Happy Birthday to you you
TTITLE2=joifuru
TTITLE3=Automatic
TTITLE4=reason
TTITLE5=ankokutenngoku
EXTD=
EXTT0=
EXTT1=
EXTT2=
EXTT3=
EXTT4=
EXTT5=
PLAYORDER=
